<svg width="600" height="215" viewBox="0 0 600 215" fill="none" xmlns="http://www.w3.org/2000/svg">
<rect width="600" height="215" fill="white"/>
<path d="M149 67.7212L238.062 119.106V60.8976L199.494 38.6468L149 67.7212Z" fill="#FE73B8"/>
<path d="M157.366 14.9126C152.204 11.9458 145.855 11.9458 140.693 14.9126L59.9968 61.4909V119.699L199.495 39.2401L157.366 14.9126Z" fill="#9887FE"/>
<path d="M149 147.676L59.9374 96.3505V154.559L98.5055 176.809L149 147.676Z" fill="#FF456F"/>
<path d="M140.634 201.137C145.796 204.104 152.145 204.104 157.307 201.137L238.003 154.559V96.3505L98.5055 176.869L140.634 201.137Z" fill="#FF9450"/>
<path d="M274.875 37.675C277.425 37.675 279.6 38.725 281.4 40.825C283.2 42.775 284.1 45.475 284.1 48.925C284.1 52.375 283.2 55 281.4 56.8C279.6 58.6 277.5 59.5 275.1 59.5C272.4 59.5 270.075 58.6 268.125 56.8C266.325 54.85 265.425 52.225 265.425 48.925C265.425 45.475 266.325 42.775 268.125 40.825C269.925 38.725 272.175 37.675 274.875 37.675ZM248.325 196.75C255.225 194.05 260.475 190 264.075 184.6C267.675 179.2 269.475 171.7 269.475 162.1V89.425C269.475 87.775 270 86.425 271.05 85.375C272.25 84.325 273.6 83.8 275.1 83.8C276.75 83.8 278.1 84.325 279.15 85.375C280.2 86.425 280.725 87.775 280.725 89.425V162.1C280.725 170.5 279.6 177.55 277.35 183.25C275.25 188.95 272.4 193.525 268.8 196.975C265.2 200.425 261.225 203.2 256.875 205.3C253.725 206.8 251.55 207.55 250.35 207.55C248.85 207.55 247.575 206.95 246.525 205.75C245.325 204.7 244.725 203.425 244.725 201.925C244.725 199.375 245.925 197.65 248.325 196.75ZM372.845 169.975C369.545 166.525 366.995 162.175 365.195 156.925C360.095 161.725 354.47 165.475 348.32 168.175C342.32 170.725 335.795 172 328.745 172C321.845 172 316.37 170.725 312.32 168.175C308.27 165.625 305.42 162.475 303.77 158.725C302.12 154.975 301.295 151.45 301.295 148.15C301.295 144.55 301.895 141.1 303.095 137.8C304.445 134.35 306.47 131.35 309.17 128.8C312.92 125.35 317.945 122.425 324.245 120.025C330.545 117.625 338.27 116.425 347.42 116.425C352.22 116.425 357.32 116.65 362.72 117.1C362.12 110.35 359.87 105.025 355.97 101.125C352.07 97.075 346.22 95.05 338.42 95.05C335.42 95.05 332.345 95.35 329.195 95.95C326.045 96.4 323.645 96.925 321.995 97.525C320.045 98.275 318.62 98.65 317.72 98.65C316.22 98.65 314.87 98.125 313.67 97.075C312.47 95.875 311.87 94.6 311.87 93.25C311.87 90.4 313.145 88.525 315.695 87.625C318.245 86.875 321.62 86.05 325.82 85.15C330.17 84.25 334.37 83.8 338.42 83.8C350.72 83.8 359.72 87.175 365.42 93.925C371.27 100.675 374.195 109.45 374.195 120.25V140.725C374.195 145.825 374.72 150.1 375.77 153.55C376.97 156.85 378.695 159.775 380.945 162.325C381.995 163.375 382.52 164.65 382.52 166.15C382.52 167.65 381.92 169 380.72 170.2C379.67 171.25 378.395 171.775 376.895 171.775C375.395 171.775 374.045 171.175 372.845 169.975ZM328.745 160.75C335.195 160.75 341.345 159.325 347.195 156.475C353.045 153.475 358.295 148.975 362.945 142.975V128.35C357.395 127.9 352.22 127.675 347.42 127.675C333.17 127.675 323.12 130.6 317.27 136.45C315.47 138.25 314.195 140.125 313.445 142.075C312.845 144.025 312.545 146.05 312.545 148.15C312.545 151.15 313.82 154 316.37 156.7C319.07 159.4 323.195 160.75 328.745 160.75ZM442.864 172C429.064 172 419.239 169.15 413.389 163.45C407.539 157.6 404.614 149.8 404.614 140.05V95.05H390.439C388.939 95.05 387.589 94.525 386.389 93.475C385.339 92.275 384.814 90.925 384.814 89.425C384.814 87.775 385.339 86.425 386.389 85.375C387.589 84.325 388.939 83.8 390.439 83.8H404.614V61.075C404.614 59.425 405.139 58.075 406.189 57.025C407.389 55.975 408.739 55.45 410.239 55.45C411.889 55.45 413.239 55.975 414.289 57.025C415.339 58.075 415.864 59.425 415.864 61.075V83.8H445.789C447.439 83.8 448.789 84.325 449.839 85.375C450.889 86.425 451.414 87.775 451.414 89.425C451.414 90.925 450.889 92.275 449.839 93.475C448.789 94.525 447.439 95.05 445.789 95.05H415.864V140.05C415.864 153.85 424.864 160.75 442.864 160.75C444.514 160.75 445.864 161.35 446.914 162.55C447.964 163.6 448.489 164.875 448.489 166.375C448.489 167.875 447.889 169.225 446.689 170.425C445.639 171.475 444.364 172 442.864 172ZM505.133 172C490.733 172 479.108 168.25 470.258 160.75C461.558 153.25 457.208 142.675 457.208 129.025C457.208 119.875 459.158 111.925 463.058 105.175C466.958 98.425 472.133 93.175 478.583 89.425C485.183 85.675 492.458 83.8 500.408 83.8C508.358 83.8 515.033 85.375 520.433 88.525C525.833 91.675 529.883 95.575 532.583 100.225C535.433 104.875 536.858 109.45 536.858 113.95C536.858 119.35 535.133 124 531.683 127.9C528.383 131.8 522.083 133.75 512.783 133.75H468.683C469.883 142.75 473.783 149.5 480.383 154C487.133 158.5 495.383 160.75 505.133 160.75C508.883 160.75 512.258 160.45 515.258 159.85C518.408 159.25 520.808 158.65 522.458 158.05C524.108 157.45 525.158 157.075 525.608 156.925C526.208 156.775 526.658 156.7 526.958 156.7C528.458 156.7 529.733 157.3 530.783 158.5C531.983 159.55 532.583 160.825 532.583 162.325C532.583 164.875 531.383 166.6 528.983 167.5C525.833 168.7 522.158 169.75 517.958 170.65C513.758 171.55 509.483 172 505.133 172ZM500.408 95.05C492.458 95.05 485.558 97.6 479.708 102.7C473.858 107.65 470.258 114.25 468.908 122.5H513.008C521.558 122.5 525.833 119.65 525.833 113.95C525.833 109.3 523.508 105.025 518.858 101.125C514.208 97.075 508.058 95.05 500.408 95.05Z" fill="#FF9450"/>
</svg>
